<svg id="Layer_1" data-name="Layer 1" xmlns="http://www.w3.org/2000/svg" viewBox="0 0 38.93 20.3"><title>Ayaz-logo</title><path d="M24.17,6.08a3.86,3.86,0,0,0-2.36-.81,1.85,1.85,0,0,0-1.4.61,4.82,4.82,0,0,0-.83,1.45,4.38,4.38,0,0,0-.38,1.59.75.75,0,0,0,.27.47.86.86,0,0,0,.55.27c.12,0,.24-.06.24-.18V9.23a3.41,3.41,0,0,1,.59-1.89A1.94,1.94,0,0,1,22.4,6.26,1.58,1.58,0,0,1,24,7.55a8.67,8.67,0,0,1,.23,2.34c0,.22,0,.54-.14.54H21.85a3.74,3.74,0,0,0-2.16.74c-.85.59-1.28,1.15-1.28,1.76a1.81,1.81,0,0,0,1.08,1.56,3.81,3.81,0,0,0,2,.55,4.56,4.56,0,0,0,2.72-.92.87.87,0,0,1,.07.36,6.51,6.51,0,0,0,0,.87c.07.3.08,1.49.75,1.83.29.14.4-1.48.4-1.69L25.34,8.2A2.7,2.7,0,0,0,24.17,6.08Zm-.82,7.41a3.08,3.08,0,0,1-1.84.63,2,2,0,0,1-1.12-.3,1,1,0,0,1-.56-.94,1.59,1.59,0,0,1,1-1.49A4.7,4.7,0,0,1,22.82,11c.93,0,1.39.3,1.39.9A1.91,1.91,0,0,1,23.35,13.49Z" transform="translate(0 0)"/><path d="M16.9,5.52c-.46,0-.64.15-.66.54s0,.71,0,1V9.59a7.46,7.46,0,0,1-.54,2.64c-.43,1.12-1,1.68-1.78,1.68-1,0-1.48-.83-1.66-2.22,1.49.1,3.33.29,3.39,0,.09-.47-2.4-.8-3.4-1h0a20.05,20.05,0,0,1,.36-5.21c.06-.19-.24-.29-.81-.29a.74.74,0,0,0-.81.72c-.06,1.29-.1,2.77-.1,4.61l-.34,0a1.63,1.63,0,0,1-.66-.17Q9.45,6,9.11,4.41,8.17,0,6.43,0T1.84,8.44A30.46,30.46,0,0,0,.38,13.95a4.31,4.31,0,0,1-.2.59,2.32,2.32,0,0,0-.18.6.81.81,0,0,0,.36.57A1.11,1.11,0,0,0,1,16a.36.36,0,0,0,.32-.16,16.24,16.24,0,0,1,.2-1.75A3.76,3.76,0,0,1,2,12.47a7.61,7.61,0,0,1,2.72-.63,26.19,26.19,0,0,1,3-.27l.52-.05a4.1,4.1,0,0,1,.77,0,4.11,4.11,0,0,1,.06.6l0,.62c0,.36,0,.67,0,.8a3,3,0,0,0,.09,1.13,1.39,1.39,0,0,0,.56.16.9.9,0,0,0,.55-.18.61.61,0,0,0,.28-.48,7,7,0,0,1-.58-2.56,5.4,5.4,0,0,0,.64,0,3.23,3.23,0,0,1,.32,0,4.81,4.81,0,0,0,.68,2.09,2.6,2.6,0,0,0,2.32,1.19A2,2,0,0,0,15,14.59a6,6,0,0,0,.9-.74,3.8,3.8,0,0,0,0,1,8.56,8.56,0,0,1,.09.9,6.4,6.4,0,0,1-.29,2.36,2,2,0,0,1-2,1,2.77,2.77,0,0,1-1.93-.69c-.25-.25-1-1-.61-1.56,0,0,.06-.06.09-.09A7.78,7.78,0,0,1,13.74,16c.41-.1-2.84-.24-3.4.22-.37.29-.88.55-.54,1.78a4.41,4.41,0,0,0,2.08,1.82,4.78,4.78,0,0,0,1.87.45,3.55,3.55,0,0,0,2.52-.88,3.27,3.27,0,0,0,1-2.4V10a9.77,9.77,0,0,1,.13-2c.11-.66.19-1.32.32-2C17.74,5.73,17.44,5.57,16.9,5.52ZM4,10.73c-.83.15-1.29.2-1.38.23-.69.22-.37-.18-.31-.54a5.61,5.61,0,0,1,.29-.88c.51-1.44,1-2.88,1.55-4.32C5.11,2.94,5.89,1.79,6.5,1.76S7.58,3,8.08,5.51q.15.84.72,4.8Q5,10.55,4,10.73Z" transform="translate(0 0)"/><path d="M38.93,11.79c0,.4-5.26,2.24-6,2.49a16.05,16.05,0,0,1-2.73.7,14.93,14.93,0,0,1-2,.15,1.89,1.89,0,0,1-1-.27,1,1,0,0,1-.51-.88A5.13,5.13,0,0,1,28,11.42l0,0a6.24,6.24,0,0,1-.76,0,3.16,3.16,0,0,1-.92-.38c-.8-.39.79-.4,1.24-.42.14,0,.6,0,1.19-.12l1.66-2a7.46,7.46,0,0,0,1.42-2,1.15,1.15,0,0,0-.72-.18,4.23,4.23,0,0,0-1.74.38,5.63,5.63,0,0,0-1.14.72,2.92,2.92,0,0,1-.54.38c-.38,0-.57-.24-.57-.74s.71-.93,2.12-1.3A11.48,11.48,0,0,1,32,5.3c.9,0,1.35.28,1.35.85a1.89,1.89,0,0,1-.54,1.2l-2.67,3c1-.09,1.91-.14,2.15-.17a22.76,22.76,0,0,1,3.06-.28c.36.12-2.88,1.06-3.31,1.1-.2,0-1.49.22-2.71.32a6,6,0,0,0-1.45,2.53,1,1,0,0,0,.77.25,22.79,22.79,0,0,0,4-.81c.09,0,3.11-.79,3.34-.83A18.47,18.47,0,0,1,38.93,11.79Z" transform="translate(0 0)"/></svg>